<svg width="202" height="61" viewBox="0 0 202 61" fill="none" xmlns="http://www.w3.org/2000/svg">
<path d="M0.03125 11.2812C0.03125 9.94792 0.75 9.13542 2.1875 8.84375L3.53125 8.59375C3.67708 8.55208 3.80208 8.53125 3.90625 8.53125C4.03125 8.53125 4.14583 8.53125 4.25 8.53125C5.52083 8.53125 6.27083 9.26042 6.5 10.7188C6.58333 11.4271 6.6875 12.3229 6.8125 13.4062C6.9375 14.4896 7.09375 15.6771 7.28125 16.9688C7.48958 18.2604 7.71875 19.6146 7.96875 21.0312C8.23958 22.4479 8.54167 23.8438 8.875 25.2188C9.20833 26.5729 9.58333 27.8646 10 29.0938C10.4167 30.3229 10.8854 31.4062 11.4062 32.3438C11.9271 33.2812 12.4896 34.0312 13.0938 34.5938C13.7188 35.1354 14.3958 35.4062 15.125 35.4062C15.6458 35.4062 16.1667 35.25 16.6875 34.9375C17.2292 34.625 17.7604 34.2188 18.2812 33.7188C18.8021 33.1979 19.3021 32.6146 19.7812 31.9688C20.2604 31.3229 20.6979 30.6667 21.0938 30C21.4896 29.3333 21.8438 28.6979 22.1562 28.0938C22.4896 27.4688 22.75 26.9271 22.9375 26.4688C23.0625 26.0729 23.125 25.7083 23.125 25.375C23.125 25.2083 23.1146 25.0417 23.0938 24.875C23.0729 24.7083 23.0417 24.5312 23 24.3438C22.6042 23.0521 22.3021 21.7604 22.0938 20.4688C21.8854 19.1771 21.7812 17.7812 21.7812 16.2812C21.7812 15.4062 21.8542 14.5417 22 13.6875C22.1458 12.8333 22.3958 12.0521 22.75 11.3438C22.9375 10.9688 23.2188 10.6458 23.5938 10.375C23.9688 10.1042 24.375 9.88542 24.8125 9.71875C25.2708 9.55208 25.7396 9.4375 26.2188 9.375C26.7188 9.29167 27.1771 9.25 27.5938 9.25C28.0521 9.25 28.4688 9.34375 28.8438 9.53125C29.2188 9.69792 29.5521 9.98958 29.8438 10.4062C30.4271 11.1979 30.8333 12.1042 31.0625 13.125C31.3125 14.1458 31.4375 15.1771 31.4375 16.2188C31.4375 17.3438 31.3333 18.5 31.125 19.6875C30.9167 20.8542 30.6667 22.0208 30.375 23.1875C30.2292 23.4792 30.1562 23.8021 30.1562 24.1562C30.1562 24.3229 30.1771 24.5 30.2188 24.6875C30.2812 24.875 30.3542 25.0833 30.4375 25.3125C30.8125 26.2917 31.25 27.2917 31.75 28.3125C32.2708 29.3125 32.8646 30.2188 33.5312 31.0312C34.1979 31.8438 34.9479 32.5104 35.7812 33.0312C36.6146 33.5521 37.5625 33.8125 38.625 33.8125C39.5625 33.8125 40.4062 33.4167 41.1562 32.625C41.9062 31.8333 42.5312 30.8333 43.0312 29.625C43.5521 28.4167 43.9479 27.1042 44.2188 25.6875C44.4896 24.25 44.625 22.8854 44.625 21.5938C44.625 20.2188 44.5729 18.8646 44.4688 17.5312C44.3646 16.1979 44.2292 14.9688 44.0625 13.8438C44.0208 13.7396 44 13.6354 44 13.5312C44 13.4271 44 13.3229 44 13.2188C44 12.0312 44.6354 11.2188 45.9062 10.7812L47.3125 10.3125C47.7083 10.1875 48.0729 10.125 48.4062 10.125C49.5104 10.125 50.1771 10.8125 50.4062 12.1875C50.6354 13.4792 50.8125 14.7708 50.9375 16.0625C51.0833 17.3542 51.1562 18.6458 51.1562 19.9375C51.1562 22.6875 50.8333 25.2708 50.1875 27.6875C49.5417 30.1042 48.6354 32.2188 47.4688 34.0312C46.3229 35.8229 44.9583 37.2396 43.375 38.2812C41.7917 39.3229 40.0521 39.8438 38.1562 39.8438C36.3021 39.8438 34.4375 39.2917 32.5625 38.1875C30.6875 37.0625 28.9896 35.2812 27.4688 32.8438C27.1771 32.3021 26.8438 32.0312 26.4688 32.0312C26.1146 32.0312 25.7917 32.3021 25.5 32.8438C24.7708 34.1354 23.9688 35.3333 23.0938 36.4375C22.2188 37.5208 21.2917 38.4583 20.3125 39.25C19.3333 40.0417 18.3125 40.6562 17.25 41.0938C16.1875 41.5312 15.1146 41.75 14.0312 41.75C12.2812 41.75 10.7396 41.2708 9.40625 40.3125C8.09375 39.375 6.94792 38.1146 5.96875 36.5312C5.01042 34.9479 4.19792 33.1354 3.53125 31.0938C2.86458 29.0312 2.30208 26.8958 1.84375 24.6875C1.40625 22.4583 1.04167 20.2292 0.75 18C0.479167 15.7708 0.239583 13.6875 0.03125 11.75V11.2812Z" fill="#151318"/>
<path d="M82.625 32.1562C83.2292 31.6354 83.8229 31.375 84.4062 31.375C84.7396 31.375 85.0417 31.4583 85.3125 31.625C85.5833 31.7917 85.8854 32.0521 86.2188 32.4062C86.5312 32.8854 86.75 33.2812 86.875 33.5938C87.0208 33.8854 87.0938 34.1771 87.0938 34.4688C87.0938 35.0938 86.7812 35.6875 86.1562 36.25C85.1562 37.0833 84.0729 37.8333 82.9062 38.5C81.7396 39.1458 80.5208 39.6979 79.25 40.1562C77.9792 40.6146 76.6667 40.9583 75.3125 41.1875C73.9583 41.4375 72.6146 41.5625 71.2812 41.5625C69.5938 41.5625 68.0104 41.3438 66.5312 40.9062C65.0521 40.4896 63.7292 39.8854 62.5625 39.0938C61.4167 38.3021 60.4479 37.3542 59.6562 36.25C58.8646 35.125 58.3021 33.8646 57.9688 32.4688C57.7812 31.8854 57.6042 31.5104 57.4375 31.3438C57.2917 31.1562 57.0417 31.0625 56.6875 31.0625C55.9167 31.0625 55.3229 30.875 54.9062 30.5C54.4896 30.125 54.2812 29.5833 54.2812 28.875C54.2812 28.5833 54.3021 28.3958 54.3438 28.3125L54.4062 27.6875C54.5104 26.9375 54.7083 26.3958 55 26.0625C55.3125 25.7292 55.7917 25.5625 56.4375 25.5625H56.9062C57.7812 25.5625 58.3958 25.1562 58.75 24.3438C59.3958 22.9062 60.2188 21.5938 61.2188 20.4062C62.2188 19.2188 63.3438 18.2083 64.5938 17.375C65.8438 16.5208 67.1771 15.8646 68.5938 15.4062C70.0312 14.9271 71.4896 14.6875 72.9688 14.6875C74.5104 14.6875 75.9479 14.9167 77.2812 15.375C78.6354 15.8125 79.8125 16.4271 80.8125 17.2188C81.8125 18.0104 82.5938 18.9375 83.1562 20C83.7396 21.0625 84.0312 22.2083 84.0312 23.4375C84.0312 24.2917 83.8646 25.0729 83.5312 25.7812C83.1979 26.4896 82.7188 27.1146 82.0938 27.6562C81.4688 28.1771 80.7083 28.6042 79.8125 28.9375C78.9375 29.2708 77.9375 29.4896 76.8125 29.5938L65.9688 30.6875C65.5521 30.6875 65.2083 30.7917 64.9375 31C64.6875 31.2083 64.5625 31.4896 64.5625 31.8438C64.5625 32.3854 64.7604 32.9062 65.1562 33.4062C65.5729 33.9062 66.1146 34.3542 66.7812 34.75C67.4688 35.125 68.25 35.4271 69.125 35.6562C70.0208 35.8854 70.9375 36 71.875 36C72.7708 36 73.6875 35.9167 74.625 35.75C75.5833 35.5625 76.5208 35.3021 77.4375 34.9688C78.375 34.6354 79.2812 34.2396 80.1562 33.7812C81.0312 33.3021 81.8542 32.7604 82.625 32.1562ZM75.6562 24.0938C75.9688 24.0312 76.2396 23.8854 76.4688 23.6562C76.6979 23.4062 76.8125 23.1042 76.8125 22.75C76.8125 22.4375 76.6979 22.1458 76.4688 21.875C76.2396 21.6042 75.9271 21.3646 75.5312 21.1562C75.1354 20.9271 74.6771 20.75 74.1562 20.625C73.6354 20.5 73.0833 20.4375 72.5 20.4375C71.6458 20.4375 70.7708 20.5625 69.875 20.8125C68.9792 21.0625 68.1667 21.3958 67.4375 21.8125C66.7083 22.2083 66.1146 22.6562 65.6562 23.1562C65.1979 23.6354 64.9688 24.1146 64.9688 24.5938C64.9688 25.0729 65.2604 25.3125 65.8438 25.3125C66.1979 25.3125 66.7708 25.2708 67.5625 25.1875C68.3542 25.1042 69.2292 25.0104 70.1875 24.9062C71.1458 24.7812 72.1146 24.6458 73.0938 24.5C74.0729 24.3542 74.9271 24.2188 75.6562 24.0938Z" fill="#151318"/>
<path d="M96.875 11.875C98.2708 11.875 99.7083 12.0625 101.188 12.4375C102.667 12.7917 104.021 13.2604 105.25 13.8438C106.479 14.4062 107.49 15.0417 108.281 15.75C109.073 16.4583 109.469 17.1458 109.469 17.8125C109.469 18.1458 109.323 18.5208 109.031 18.9375C108.74 19.3333 108.385 19.7188 107.969 20.0938C107.552 20.4479 107.094 20.75 106.594 21C106.115 21.2292 105.688 21.3438 105.312 21.3438C104.812 21.3438 104.25 21.1354 103.625 20.7188C103.021 20.3021 102.344 19.8438 101.594 19.3438C100.865 18.8229 100.062 18.3542 99.1875 17.9375C98.3125 17.5208 97.3646 17.3125 96.3438 17.3125C95.6771 17.3125 95.125 17.4792 94.6875 17.8125C94.2708 18.125 94.0625 18.5729 94.0625 19.1562C94.0625 19.6771 94.3125 20.2083 94.8125 20.75C95.3125 21.2708 95.9688 21.8125 96.7812 22.375C97.6146 22.9375 98.5521 23.5312 99.5938 24.1562C100.635 24.7812 101.698 25.4479 102.781 26.1562C103.885 26.8646 104.958 27.6354 106 28.4688C107.042 29.3021 107.969 30.2083 108.781 31.1875C109.615 32.1667 110.281 33.2396 110.781 34.4062C111.281 35.5521 111.531 36.8021 111.531 38.1562C111.531 39.3229 111.323 40.3854 110.906 41.3438C110.49 42.3021 109.896 43.125 109.125 43.8125C108.354 44.5 107.438 45.0312 106.375 45.4062C105.312 45.7812 104.146 45.9688 102.875 45.9688C101.271 45.9688 99.7917 45.7188 98.4375 45.2188C97.0833 44.7396 95.9167 44.0729 94.9375 43.2188C93.9583 42.3646 93.1875 41.3438 92.625 40.1562C92.0833 38.9688 91.8125 37.6667 91.8125 36.25C91.8125 34.4167 92.1354 33.0833 92.7812 32.25C93.4479 31.4167 94.4896 31 95.9062 31C96.7812 31 97.4792 31.1667 98 31.5C98.5208 31.8333 98.7812 32.2396 98.7812 32.7188C98.7812 32.9688 98.7396 33.2292 98.6562 33.5C98.5729 33.75 98.4792 34.0208 98.375 34.3125C98.2917 34.5833 98.2083 34.875 98.125 35.1875C98.0625 35.5 98.0312 35.8125 98.0312 36.125C98.0312 36.6667 98.1562 37.1875 98.4062 37.6875C98.6562 38.1875 98.9896 38.625 99.4062 39C99.8438 39.3958 100.344 39.7083 100.906 39.9375C101.469 40.1667 102.062 40.2812 102.688 40.2812C104.354 40.2812 105.188 39.5938 105.188 38.2188C105.188 37.1354 104.76 36.1146 103.906 35.1562C103.052 34.1771 101.979 33.2292 100.688 32.3125C99.3958 31.375 98 30.4375 96.5 29.5C95.0208 28.5625 93.6354 27.5833 92.3438 26.5625C91.0521 25.5417 89.9792 24.4583 89.125 23.3125C88.2708 22.1458 87.8438 20.8854 87.8438 19.5312C87.8438 18.4062 88.0729 17.375 88.5312 16.4375C89.0104 15.5 89.6562 14.6979 90.4688 14.0312C91.2812 13.3438 92.2292 12.8125 93.3125 12.4375C94.4167 12.0625 95.6042 11.875 96.875 11.875Z" fill="#151318"/>
<path d="M110.969 3.40625C110.969 2.32292 111.281 1.55208 111.906 1.09375C112.531 0.635417 113.562 0.40625 115 0.40625C115.5 0.40625 115.938 0.458333 116.312 0.5625C116.688 0.666667 117 0.84375 117.25 1.09375C117.5 1.32292 117.698 1.64583 117.844 2.0625C118.01 2.45833 118.146 2.96875 118.25 3.59375C118.521 5.44792 118.792 7.39583 119.062 9.4375C119.354 11.4583 119.625 13.4792 119.875 15.5C120.146 17.5 120.396 19.4583 120.625 21.375C120.854 23.2708 121.052 25.0417 121.219 26.6875C121.406 28.3125 121.542 29.7604 121.625 31.0312C121.729 32.2812 121.781 33.2708 121.781 34C121.781 34.75 121.708 35.3854 121.562 35.9062C121.438 36.4271 121.208 36.8438 120.875 37.1562C120.562 37.4688 120.146 37.6979 119.625 37.8438C119.125 37.9688 118.5 38.0312 117.75 38.0312C117.021 38.0312 116.438 37.8438 116 37.4688C115.583 37.0938 115.375 36.5208 115.375 35.75C115.375 34.9583 115.312 33.9062 115.188 32.5938C115.062 31.2604 114.896 29.7812 114.688 28.1562C114.479 26.5312 114.24 24.8021 113.969 22.9688C113.719 21.1354 113.448 19.3229 113.156 17.5312C112.885 15.7396 112.615 14.0208 112.344 12.375C112.094 10.7083 111.865 9.23958 111.656 7.96875C111.448 6.67708 111.281 5.625 111.156 4.8125C111.031 3.97917 110.969 3.51042 110.969 3.40625Z" fill="#151318"/>
<path d="M125.094 3.40625C125.094 2.32292 125.406 1.55208 126.031 1.09375C126.656 0.635417 127.688 0.40625 129.125 0.40625C129.625 0.40625 130.062 0.458333 130.438 0.5625C130.812 0.666667 131.125 0.84375 131.375 1.09375C131.625 1.32292 131.823 1.64583 131.969 2.0625C132.135 2.45833 132.271 2.96875 132.375 3.59375C132.646 5.44792 132.917 7.39583 133.188 9.4375C133.479 11.4583 133.75 13.4792 134 15.5C134.271 17.5 134.521 19.4583 134.75 21.375C134.979 23.2708 135.177 25.0417 135.344 26.6875C135.531 28.3125 135.667 29.7604 135.75 31.0312C135.854 32.2812 135.906 33.2708 135.906 34C135.906 34.75 135.833 35.3854 135.688 35.9062C135.562 36.4271 135.333 36.8438 135 37.1562C134.688 37.4688 134.271 37.6979 133.75 37.8438C133.25 37.9688 132.625 38.0312 131.875 38.0312C131.146 38.0312 130.562 37.8438 130.125 37.4688C129.708 37.0938 129.5 36.5208 129.5 35.75C129.5 34.9583 129.438 33.9062 129.312 32.5938C129.188 31.2604 129.021 29.7812 128.812 28.1562C128.604 26.5312 128.365 24.8021 128.094 22.9688C127.844 21.1354 127.573 19.3229 127.281 17.5312C127.01 15.7396 126.74 14.0208 126.469 12.375C126.219 10.7083 125.99 9.23958 125.781 7.96875C125.573 6.67708 125.406 5.625 125.281 4.8125C125.156 3.97917 125.094 3.51042 125.094 3.40625Z" fill="#151318"/>
<path d="M167.5 32.1562C168.104 31.6354 168.698 31.375 169.281 31.375C169.615 31.375 169.917 31.4583 170.188 31.625C170.458 31.7917 170.76 32.0521 171.094 32.4062C171.406 32.8854 171.625 33.2812 171.75 33.5938C171.896 33.8854 171.969 34.1771 171.969 34.4688C171.969 35.0938 171.656 35.6875 171.031 36.25C170.031 37.0833 168.948 37.8333 167.781 38.5C166.615 39.1458 165.396 39.6979 164.125 40.1562C162.854 40.6146 161.542 40.9583 160.188 41.1875C158.833 41.4375 157.49 41.5625 156.156 41.5625C154.469 41.5625 152.885 41.3438 151.406 40.9062C149.927 40.4896 148.604 39.8854 147.438 39.0938C146.292 38.3021 145.323 37.3542 144.531 36.25C143.74 35.125 143.177 33.8646 142.844 32.4688C142.656 31.8854 142.479 31.5104 142.312 31.3438C142.167 31.1562 141.917 31.0625 141.562 31.0625C140.792 31.0625 140.198 30.875 139.781 30.5C139.365 30.125 139.156 29.5833 139.156 28.875C139.156 28.5833 139.177 28.3958 139.219 28.3125L139.281 27.6875C139.385 26.9375 139.583 26.3958 139.875 26.0625C140.188 25.7292 140.667 25.5625 141.312 25.5625H141.781C142.656 25.5625 143.271 25.1562 143.625 24.3438C144.271 22.9062 145.094 21.5938 146.094 20.4062C147.094 19.2188 148.219 18.2083 149.469 17.375C150.719 16.5208 152.052 15.8646 153.469 15.4062C154.906 14.9271 156.365 14.6875 157.844 14.6875C159.385 14.6875 160.823 14.9167 162.156 15.375C163.51 15.8125 164.688 16.4271 165.688 17.2188C166.688 18.0104 167.469 18.9375 168.031 20C168.615 21.0625 168.906 22.2083 168.906 23.4375C168.906 24.2917 168.74 25.0729 168.406 25.7812C168.073 26.4896 167.594 27.1146 166.969 27.6562C166.344 28.1771 165.583 28.6042 164.688 28.9375C163.812 29.2708 162.812 29.4896 161.688 29.5938L150.844 30.6875C150.427 30.6875 150.083 30.7917 149.812 31C149.562 31.2083 149.438 31.4896 149.438 31.8438C149.438 32.3854 149.635 32.9062 150.031 33.4062C150.448 33.9062 150.99 34.3542 151.656 34.75C152.344 35.125 153.125 35.4271 154 35.6562C154.896 35.8854 155.812 36 156.75 36C157.646 36 158.562 35.9167 159.5 35.75C160.458 35.5625 161.396 35.3021 162.312 34.9688C163.25 34.6354 164.156 34.2396 165.031 33.7812C165.906 33.3021 166.729 32.7604 167.5 32.1562ZM160.531 24.0938C160.844 24.0312 161.115 23.8854 161.344 23.6562C161.573 23.4062 161.688 23.1042 161.688 22.75C161.688 22.4375 161.573 22.1458 161.344 21.875C161.115 21.6042 160.802 21.3646 160.406 21.1562C160.01 20.9271 159.552 20.75 159.031 20.625C158.51 20.5 157.958 20.4375 157.375 20.4375C156.521 20.4375 155.646 20.5625 154.75 20.8125C153.854 21.0625 153.042 21.3958 152.312 21.8125C151.583 22.2083 150.99 22.6562 150.531 23.1562C150.073 23.6354 149.844 24.1146 149.844 24.5938C149.844 25.0729 150.135 25.3125 150.719 25.3125C151.073 25.3125 151.646 25.2708 152.438 25.1875C153.229 25.1042 154.104 25.0104 155.062 24.9062C156.021 24.7812 156.99 24.6458 157.969 24.5C158.948 24.3542 159.802 24.2188 160.531 24.0938Z" fill="#151318"/>
<path d="M187 39.8438C185.75 39.8438 184.5 39.5417 183.25 38.9375C182 38.3125 180.802 37.4688 179.656 36.4062C178.51 35.3438 177.448 34.0938 176.469 32.6562C175.49 31.1979 174.635 29.6354 173.906 27.9688C173.177 26.2812 172.604 24.5208 172.188 22.6875C171.771 20.8542 171.562 19.0208 171.562 17.1875C171.562 15.7708 171.854 14.7604 172.438 14.1562C173.021 13.5312 173.969 13.2188 175.281 13.2188C176.927 13.2188 177.844 13.8958 178.031 15.25C178.406 18.125 178.927 20.7188 179.594 23.0312C180.26 25.3438 181.042 27.3125 181.938 28.9375C182.854 30.5625 183.865 31.8125 184.969 32.6875C186.094 33.5625 187.281 34 188.531 34C189.427 34 190.271 33.7812 191.062 33.3438C191.854 32.8854 192.542 32.25 193.125 31.4375C193.333 31.125 193.469 30.8229 193.531 30.5312C193.615 30.2396 193.677 29.9062 193.719 29.5312C193.823 28.0521 193.938 26.6042 194.062 25.1875C194.208 23.75 194.344 22.3125 194.469 20.875C194.51 20.25 194.594 19.7396 194.719 19.3438C194.844 18.9479 195.031 18.6354 195.281 18.4062C195.531 18.1771 195.854 18.0208 196.25 17.9375C196.667 17.8542 197.188 17.8125 197.812 17.8125C198.521 17.8125 199.125 17.9167 199.625 18.125C200.125 18.3125 200.531 18.6354 200.844 19.0938C201.156 19.5312 201.375 20.1146 201.5 20.8438C201.646 21.5521 201.719 22.4375 201.719 23.5C201.719 24.4167 201.646 25.2188 201.5 25.9062C201.375 26.5729 201.219 27.2083 201.031 27.8125C200.865 28.3958 200.698 28.9792 200.531 29.5625C200.385 30.125 200.292 30.75 200.25 31.4375C200.146 33.1667 200.052 34.6667 199.969 35.9375C199.885 37.1875 199.812 38.2604 199.75 39.1562C199.708 40.0521 199.667 40.8229 199.625 41.4688C199.604 42.1146 199.583 42.6875 199.562 43.1875C199.542 43.7083 199.531 44.1979 199.531 44.6562C199.531 45.1146 199.531 45.6146 199.531 46.1562C199.531 47.1354 199.573 48.1979 199.656 49.3438C199.74 50.5104 199.823 51.625 199.906 52.6875C200.01 53.75 200.104 54.6875 200.188 55.5C200.271 56.3125 200.312 56.875 200.312 57.1875C200.312 57.5833 200.188 57.9583 199.938 58.3125C199.688 58.6667 199.354 58.9792 198.938 59.25C198.521 59.5208 198.031 59.7292 197.469 59.875C196.906 60.0417 196.312 60.125 195.688 60.125C195.146 60.125 194.708 59.9375 194.375 59.5625C194.062 59.2083 193.885 58.7292 193.844 58.125C193.781 57.3333 193.729 56.3646 193.688 55.2188C193.646 54.0938 193.604 52.8854 193.562 51.5938C193.521 50.3229 193.49 49.0208 193.469 47.6875C193.469 46.375 193.458 45.1458 193.438 44C193.417 42.875 193.406 41.8854 193.406 41.0312C193.406 40.1771 193.406 39.5625 193.406 39.1875C193.406 38.8125 193.365 38.5521 193.281 38.4062C193.198 38.2396 193.042 38.1562 192.812 38.1562C192.688 38.1562 192.521 38.1979 192.312 38.2812C192.104 38.3438 191.865 38.4583 191.594 38.625C190.865 39.0625 190.125 39.375 189.375 39.5625C188.625 39.75 187.833 39.8438 187 39.8438Z" fill="#151318"/>
</svg>
